<svg xmlns="http://www.w3.org/2000/svg" viewBox="120 298 560 576">
  <g transform="translate(0,1024) scale(0.1,-0.1)">
    <path fill="white" d="M4645 7260 c-118 -25 -221 -62 -322 -115 -561 -292 -1028 -933 -1208 -1655 -56 -225 -78 -397 -78 -620 -1 -321 49 -554 180 -830 53 -112 63 -130 147 -255 86 -130 250 -306 396 -426 105 -87 316 -215 440 -269 41 -17 89 -38 107 -46 91 -41 279 -86 458 -110 215 -28 480 -11 700 47 132 34 138 36 190 57 324 130 534 268 756 499 287 298 461 642 531 1048 27 162 22 336 -14 446 -60 182 -197 316 -393 386 -73 25 -92 28 -215 28 -140 -1 -179 -8 -285 -56 -278 -124 -473 -428 -464 -724 1 -39 -1 -77 -4 -82 -4 -6 -44 -13 -89 -16 -214 -17 -418 -74 -641 -179 l-108 -51 -50 49 c-28 27 -75 81 -105 121 -189 250 -285 530 -285 832 0 73 2 135 4 137 2 2 61 -1 131 -8 340 -32 641 75 876 312 196 197 308 435 326 693 26 363 -191 674 -542 778 -104 31 -319 35 -439 9z m439 -125 c126 -44 212 -103 294 -199 264 -311 140 -868 -261 -1169 -93 -70 -152 -103 -239 -133 -97 -34 -179 -51 -278 -59 -79 -6 -130 -2 -345 25 -108 14 -244 -2 -370 -42 -328 -104 -596 -387 -691 -730 -36 -129 -37 -131 -45 -63 -6 57 4 306 17 405 20 156 86 413 159 620 31 90 206 428 271 525 301 449 688 750 1074 836 129 29 308 22 414 -16z m-904 -1657 c0 -183 10 -356 24 -422 58 -261 175 -497 347 -695 38 -44 69 -83 69 -88 -1 -4 -33 -30 -72 -58 -91 -63 -266 -230 -330 -315 -62 -82 -115 -189 -128 -259 -28 -148 4 -293 85 -386 36 -41 16 -43 -52 -4 -336 190 -635 489 -761 761 -34 74 -80 219 -93 295 -6 37 -12 129 -11 203 0 111 5 152 25 231 51 196 138 352 268 481 125 123 270 208 423 248 85 22 206 26 206 8z m2267 -152 c149 -32 291 -140 351 -267 83 -173 62 -369 -58 -552 -58 -89 -76 -111 -157 -190 -200 -194 -494 -328 -780 -356 -150 -14 -350 0 -464 33 -156 45 -159 48 -159 141 0 45 7 70 32 117 70 131 207 208 374 208 54 0 77 4 94 18 21 17 22 20 10 97 -36 237 63 483 254 630 151 117 327 159 503 121z m-1287 -942 c0 -3 -13 -24 -28 -47 -37 -53 -62 -129 -62 -183 0 -24 -4 -45 -8 -48 -12 -7 -242 135 -242 149 0 8 156 79 235 106 81 28 105 34 105 23z m1601 -76 c-52 -134 -161 -354 -201 -406 -12 -15 -48 -64 -81 -109 -188 -260 -487 -495 -783 -618 -216 -89 -423 -134 -661 -142 -115 -4 -171 -1 -240 11 -118 22 -246 61 -317 97 -74 38 -201 148 -234 205 -81 138 -68 291 38 450 52 78 195 227 272 284 164 123 161 121 192 92 44 -41 185 -133 269 -176 140 -70 287 -115 457 -139 137 -19 161 -20 296 -9 367 30 642 150 887 385 55 53 103 96 107 97 4 0 4 -10 -1 -22z"/>
  </g>
</svg>
